<?xml version="1.0" standalone="no"?>
<!DOCTYPE svg PUBLIC "-//W3C//DTD SVG 20010904//EN"
 "http://www.w3.org/TR/2001/REC-SVG-20010904/DTD/svg10.dtd">
<svg version="1.0" xmlns="http://www.w3.org/2000/svg"
 width="640.000000pt" height="282.000000pt" viewBox="0 0 640.000000 282.000000"
 preserveAspectRatio="xMidYMid meet">
<metadata>
Created by potrace 1.16, written by Peter Selinger 2001-2019
</metadata>
<g transform="translate(0.000000,282.000000) scale(0.100000,-0.100000)"
fill="#000000" stroke="none">
<path d="M0 1410 l0 -1410 3200 0 3200 0 0 1410 0 1410 -3200 0 -3200 0 0
-1410z m5680 649 c0 -27 -4 -39 -14 -39 -7 0 -16 -10 -19 -22 -6 -21 -5 -22 8
-5 13 18 14 17 20 -3 9 -27 -2 -115 -19 -155 -15 -36 -4 -98 43 -245 30 -90
65 -150 90 -150 6 0 11 -12 11 -26 0 -30 24 -53 56 -54 12 0 24 -7 28 -15 3
-8 12 -15 20 -15 8 0 16 -10 18 -22 2 -13 9 -22 16 -21 6 2 12 -2 12 -8 0 -5
5 -7 10 -4 6 3 10 1 10 -5 0 -6 -15 -10 -35 -8 -27 2 -34 6 -30 18 4 11 2 11
-9 -2 -16 -22 -30 -23 -22 -3 3 10 -3 17 -19 21 -14 3 -25 11 -25 18 0 7 -3 7
-8 1 -10 -14 -32 -17 -32 -4 0 8 -13 9 -40 5 -41 -6 -44 -4 -41 34 0 10 -1 11
-5 3 -4 -9 -11 -10 -25 -3 -10 6 -19 8 -19 4 0 -3 -7 -1 -15 6 -13 11 -14 10
-9 -4 3 -9 1 -16 -5 -16 -6 0 -11 7 -11 16 0 11 -6 15 -20 11 -11 -3 -20 -1
-20 4 0 5 -13 9 -30 9 -16 0 -30 5 -30 11 0 8 -4 8 -14 0 -11 -9 -15 -9 -18 1
-4 11 -8 11 -20 0 -13 -10 -18 -10 -24 -1 -5 8 -3 9 6 4 9 -5 11 -4 6 4 -6 9
-14 8 -32 -3 -13 -9 -32 -16 -44 -16 -17 0 -20 6 -20 38 0 40 -25 86 -41 77
-13 -9 -39 20 -39 44 0 19 -2 20 -20 9 -17 -11 -23 -10 -43 12 -12 14 -29 25
-37 25 -8 -1 -21 4 -29 9 -12 9 -13 8 -6 -3 5 -10 4 -12 -3 -7 -22 13 -12 26
21 26 18 0 43 7 56 16 20 14 30 15 82 4 32 -7 61 -11 64 -9 4 2 11 -4 16 -13
13 -24 31 -23 47 3 16 25 14 127 -2 148 -9 12 -8 13 3 6 10 -5 12 -4 7 3 -4 7
-12 12 -17 12 -37 0 -51 68 -23 108 8 12 10 22 5 22 -21 0 -11 29 12 32 12 2
21 6 19 11 -1 4 5 21 13 37 11 22 23 30 43 31 15 0 21 3 15 6 -7 2 -13 10 -13
16 0 5 3 7 6 4 4 -3 16 -1 27 4 16 9 17 13 6 20 -9 6 -1 8 23 5 30 -4 36 -2
31 11 -4 9 -2 14 3 11 5 -3 18 -2 28 2 11 3 30 5 43 2 19 -4 23 -10 23 -43z
m-110 31 c0 -5 -2 -10 -4 -10 -3 0 -8 5 -11 10 -3 6 -1 10 4 10 6 0 11 -4 11
-10z m460 -132 c0 -5 -6 -8 -14 -5 -8 3 -17 -1 -20 -10 -4 -9 -9 -13 -13 -9
-9 8 28 47 38 40 5 -3 9 -10 9 -16z m90 7 c0 -8 -4 -15 -10 -15 -5 0 -10 7
-10 15 0 8 5 15 10 15 6 0 10 -7 10 -15z m40 5 c0 -5 -4 -10 -10 -10 -5 0 -10
5 -10 10 0 6 5 10 10 10 6 0 10 -4 10 -10z m-100 -10 c0 -5 -4 -10 -10 -10 -5
0 -10 5 -10 10 0 6 5 10 10 10 6 0 10 -4 10 -10z m-162 -40 c7 -12 8 -20 2
-20 -5 0 -10 5 -10 10 0 6 -9 10 -20 10 -11 0 -20 5 -20 10 0 18 35 11 48 -10z
m-58 -10 c0 -5 -4 -10 -10 -10 -5 0 -10 5 -10 10 0 6 5 10 10 10 6 0 10 -4 10
-10z m-50 -25 c0 -8 -4 -15 -10 -15 -5 0 -7 7 -4 15 4 8 8 15 10 15 2 0 4 -7
4 -15z m-7 -206 c20 -2 20 -2 -3 -7 l-25 -5 25 -8 25 -8 -25 2 c-25 2 -25 2
-26 107 l0 105 3 -92 c4 -88 5 -93 26 -94z m177 171 c0 -5 -4 -10 -10 -10 -5
0 -10 5 -10 10 0 6 5 10 10 10 6 0 10 -4 10 -10z m101 -30 c12 0 19 -7 19 -20
0 -13 -7 -20 -20 -20 -13 0 -20 7 -20 19 0 16 -6 19 -35 17 -19 -2 -32 1 -29
6 3 5 14 6 24 3 10 -3 22 0 26 7 6 9 9 9 12 0 2 -7 12 -12 23 -12z m-126 -54
c-9 -6 -18 -20 -19 -31 -2 -11 -9 -19 -15 -17 -6 1 -11 -5 -11 -13 0 -8 -7
-15 -15 -15 -13 0 -20 -18 -16 -42 0 -5 -6 -8 -14 -8 -28 0 -17 44 15 64 17 9
27 22 24 28 -4 7 -2 8 4 4 7 -4 12 -2 12 3 0 15 33 49 43 43 5 -2 1 -9 -8 -16z
m-868 -140 c3 -3 -5 -6 -20 -6 -14 0 -28 4 -31 9 -7 10 41 8 51 -3z m759 -13
c-3 -8 -6 -17 -6 -19 0 -2 -8 -4 -17 -4 -17 1 -17 1 0 11 14 8 16 14 6 25 -10
12 -9 13 5 8 10 -4 15 -13 12 -21z m-713 0 c-7 -2 -19 -2 -25 0 -7 3 -2 5 12
5 14 0 19 -2 13 -5z m297 -3 c0 -5 -4 -10 -10 -10 -5 0 -10 5 -10 10 0 6 5 10
10 10 6 0 10 -4 10 -10z m380 -68 c-5 -2 -10 -13 -10 -25 0 -12 -5 -29 -10
-37 -7 -11 -10 -5 -10 23 0 21 5 37 11 37 8 0 7 6 -2 17 -13 15 -12 15 9 2 12
-8 18 -15 12 -17z m-180 -192 c0 -5 -5 -10 -11 -10 -5 0 -7 5 -4 10 3 6 8 10
11 10 2 0 4 -4 4 -10z"/>
<path d="M5380 1410 c0 -5 5 -10 11 -10 5 0 7 5 4 10 -3 6 -8 10 -11 10 -2 0
-4 -4 -4 -10z"/>
</g>
</svg>
